<svg id="Layer_1" data-name="Layer 1" xmlns="http://www.w3.org/2000/svg" viewBox="0 0 213.04 234.67"><defs><style>.cls-1{fill:#0d3944;}.cls-2{fill:#124754;}.cls-3{fill:#23777f;}</style></defs><path class="cls-1" d="M300.75,304.66h0l-.48-.44c-2.81-2.6-5.59-5.35-8.32-8.11C286.48,290.57,281.2,285,276,279.47l-7.72-8.15-3.89-4-2-2c-.69-.67-1.46-1.39-2.21-2s-1.5-1.32-2.29-1.94c-.4-.31-.77-.63-1.19-.93l-.79-.58c-.34-.26-.69-.53-1-.75a38,38,0,0,0-8.3-4.45,18.71,18.71,0,0,0-7.54-1.33l-.84.06-.8.14a9.72,9.72,0,0,0-1.54.43l-.74.31a6.17,6.17,0,0,0-.7.42c-.46.31-.94.64-1.43,1a10.44,10.44,0,0,0-1.82,2.76,11,11,0,0,0-.77,3.07,19.56,19.56,0,0,0,.8,7.32,41.37,41.37,0,0,0,3.13,7.78,43.66,43.66,0,0,0,3.21,5.15c1.87,2.65,3.71,5.08,5.54,7.41s3.62,4.55,5.38,6.69q5.28,6.4,10.07,11.78c1.61,1.79,3.15,3.49,4.7,5.11l4.34,4.5c11.05,11.29,17.9,17.34,19,16.43s-3.75-8.67-13.07-21.44l-3.68-5q-1.89-2.6-3.94-5.45c-2.73-3.83-5.66-8-8.75-12.46s-6.37-9.25-9.42-14.21c-.39-.63-.74-1.24-1.08-1.83a5.5,5.5,0,0,1-.5-1,4.58,4.58,0,0,1-.2-.79c-.06-.47-.14-.93.2-1.21a1,1,0,0,1,.73.14,3.12,3.12,0,0,1,.57.37,3.72,3.72,0,0,1,.4.38s0,0,0,0,0,0,0,0l.22.17c.3.23.58.49.87.74.58.49,1.15,1,1.72,1.56s1.1,1.06,1.68,1.66l1.75,1.86,3.62,4,7.45,8.29c5.07,5.63,10.32,11.41,15.92,17.23,2.8,2.9,5.68,5.81,8.79,8.71l.63.59,1.11,1c.75.69,1.52,1.34,2.28,2a45.79,45.79,0,0,0,4.68,3.52,17.49,17.49,0,0,0,4.58,2.2,10,10,0,0,0,4.08.32,8,8,0,0,0,1.9-.48,7.61,7.61,0,0,0,1.81-.94A8.22,8.22,0,0,0,313.4,321l.27-.4a1.53,1.53,0,0,0,.24-.46l.38-1.12.37-1.11.19-.56a6,6,0,0,0,.12-.66c.24-1.82.6-3.54.68-5.5s.3-3.82.36-5.74l.12-3.05.16-5.9c.14-7.84.15-15.61.11-23.38-.09-15.54-.37-31-.76-46.53l-15.29.42c.4,15.38.67,30.82.76,46.19,0,7.69,0,15.38-.11,23l-.15,5.69Z" transform="translate(-200.88 -226.61)"/><path class="cls-2" d="M314.13,381.47h0l.08.08.38.38,1.52,1.53c1,1,2,2.11,3,3.19,4,4.34,7.92,8.86,11.8,13.31s7.74,8.87,11.7,13.15c2,2.14,4,4.25,6.07,6.31q1.56,1.55,3.22,3.06c.56.51,1.12,1,1.71,1.51s1.1.92,1.66,1.37l1.63,1.35,2.5,1.95c1.53,1.27,3.74,2.71,5.72,4.08a26.34,26.34,0,0,0,5.78,2.72,10.93,10.93,0,0,0,4.9.48,6.52,6.52,0,0,0,1.12-.22,6.67,6.67,0,0,0,1.15-.37,8.16,8.16,0,0,0,2.26-1.4,16.31,16.31,0,0,0,1.87-1.94,7.93,7.93,0,0,0,1.27-2.06,11.57,11.57,0,0,0,.94-4.7,21.4,21.4,0,0,0-.8-5.57,37.1,37.1,0,0,0-2.11-5.85c-.46-1-.88-1.94-1.42-2.86l-.77-1.39c-.15-.26-.22-.38-.31-.51l-.27-.42c-1.44-2.23-2.8-4.07-4.19-5.95-2.75-3.69-5.46-7.1-8.09-10.33-5.26-6.44-10.14-12.09-14.7-17s-8.46-8.79-11.77-12c-6.61-6.46-10.64-9.71-11.45-9s1.69,5.22,6.89,12.86c2.6,3.81,5.9,8.42,9.76,13.67s8,11.27,12.62,18c2.29,3.36,4.68,6.89,7.05,10.57,1.15,1.82,2.39,3.75,3.36,5.52l.19.33a2.37,2.37,0,0,1,.13.24l.06.16c0,.1.07.21.1.31s.1.4.13.58a2.17,2.17,0,0,1,0,1,.58.58,0,0,1-.89.22,3.9,3.9,0,0,1-.79-.67,3.8,3.8,0,0,0-.6-.58l-2.1-1.87L363,413.34l-1.34-1.26c-.9-.87-1.8-1.79-2.71-2.75-1.81-1.9-3.63-3.93-5.46-6-3.67-4.17-7.36-8.6-11.18-13.12s-7.73-9.17-12-13.84q-1.59-1.75-3.27-3.51l-1.73-1.76-1.2-1.18c-.56-.54-1.13-1-1.69-1.57a31.39,31.39,0,0,0-7.1-5.12,11.56,11.56,0,0,0-6.86-1.24,9.54,9.54,0,0,0-4.1,1.64,11.48,11.48,0,0,0-1.47,1.3,4.83,4.83,0,0,0-.63.81l-.6.87a3.88,3.88,0,0,0-.29.45l-.21.57-.44,1.15-.43,1.16c-.11.43-.18.9-.27,1.35l-.52,2.72c-.13.95-.21,1.92-.32,2.88s-.21,1.92-.29,2.89l-.12,1.82-.17,3q-.15,3-.24,6c-.25,7.95-.28,15.81-.27,23.66.06,15.71.37,31.33.84,47l15.28-.5c-.47-15.49-.77-31.07-.83-46.56,0-7.75,0-15.49.26-23.14.05-1.91.13-3.81.23-5.7l.16-2.81.07-1.09Z" transform="translate(-200.88 -226.61)"/><path class="cls-3" d="M360.76,322.82c9.55-9.57,19.22-18.67,28.55-27.72l3.51-3.45c1.18-1.19,2.3-2.3,3.63-3.79l.52-.61.4-.48.79-1,1.54-2q1.51-1.95,2.95-3.93t2.8-4l.69-1c.41-.61.81-1.24,1.2-1.86.8-1.25,1.55-2.51,2.25-3.76a42.5,42.5,0,0,0,3.37-7.29,16.35,16.35,0,0,0,.94-6.09,10.37,10.37,0,0,0-.42-2.48,9.33,9.33,0,0,0-1-2.31,12.61,12.61,0,0,0-.9-1.12l-.5-.57a3.62,3.62,0,0,0-.59-.46c-.4-.28-.76-.52-1.12-.74a8.53,8.53,0,0,0-1.12-.5,11.34,11.34,0,0,0-5-.54,22.86,22.86,0,0,0-6.23,1.65,55.23,55.23,0,0,0-6.73,3.33c-2.22,1.27-4.53,2.74-5.42,3.35-2.38,1.62-4.65,3.27-6.83,5-4.36,3.33-8.37,6.91-12,10.19s-7.1,6.53-10.39,9.6c-6.56,6.17-12.42,11.8-17.5,16.89s-9.27,9.54-12.69,13.26c-6.82,7.42-10.25,11.89-9.54,12.68s5.49-2.21,13.54-8.27c4-3,8.87-6.87,14.4-11.3l18.88-15.09,10.95-8.79c3.84-3.07,7.63-6.07,11.82-8.94,2.07-1.44,4.22-2.84,6.41-4.18a8.42,8.42,0,0,1,1.62-.9l.47-.15a1.57,1.57,0,0,1,.75-.08.24.24,0,0,1,.2.29,1.3,1.3,0,0,1-.19.45,3.69,3.69,0,0,1-.47.6l-.11.11-.05,0-.61.87c-.83,1.17-1.69,2.35-2.59,3.52s-1.8,2.34-2.74,3.49l-1.42,1.73-.73.85-.36.42-.26.29c-.79.86-1.94,2-3,3L379,284.29c-9.34,8.78-19.22,17.92-29,27.73-4.86,4.89-9.67,9.83-14.34,15.24l-1.74,2.08-.63.77-.78,1c-.53.67-1,1.34-1.52,2a26.34,26.34,0,0,0-4.34,8.17,11.08,11.08,0,0,0-.33,3.7,9.14,9.14,0,0,0,1,3.58,8.89,8.89,0,0,0,.5.82,3.35,3.35,0,0,0,.53.65l1.26,1.12.63.55.32.28a2.16,2.16,0,0,0,.43.22l1.83.8c1.17.24,2.3.53,3.49.73l3.77.35,3.76.36.9.06.54,0,1,0c2.67.12,5.28.15,7.9.2,5.22.05,10.41,0,15.57-.06,10.35-.16,20.6-.5,30.95-1l-.73-15.27c-10.11.45-20.33.79-30.46.95-5.07.09-10.12.1-15.14.06-2.5-.05-5-.08-7.45-.2l-1.4-.05,1.71-2C351.39,332.35,356,327.55,360.76,322.82Z" transform="translate(-200.88 -226.61)"/><path class="cls-3" d="M252.66,365.31c-9.39,9.78-18.78,19.18-27.82,28.48l-3.39,3.53c-1.14,1.22-2.21,2.33-3.5,3.84l-.85,1-.78,1-1.52,2q-1.5,2-2.92,4c-.94,1.33-1.87,2.66-2.76,4l-.78,1.18-1.18,1.88c-.4.62-.77,1.26-1.13,1.88s-.74,1.26-1.07,1.89a41.07,41.07,0,0,0-3.23,7.27,15.88,15.88,0,0,0-.81,6,10.14,10.14,0,0,0,.48,2.45,9.27,9.27,0,0,0,1.1,2.3c.29.36.61.73.95,1.11a3.69,3.69,0,0,0,1.12,1,7.74,7.74,0,0,0,2.24,1.16,11.51,11.51,0,0,0,5.05.43,23.06,23.06,0,0,0,6.26-1.77,58.78,58.78,0,0,0,6.71-3.4c1.1-.66,2.23-1.33,3.16-1.94l.73-.46.49-.33.89-.61q3.56-2.44,6.79-5c4.33-3.35,8.31-7,11.89-10.25s7.05-6.56,10.31-9.65c6.52-6.2,12.33-11.86,17.37-17s9.2-9.59,12.59-13.32c6.77-7.45,10.17-11.94,9.45-12.72S293,367.48,285,373.59c-4,3-8.82,6.9-14.31,11.37L252,400.14,241.07,409c-3.81,3.09-7.58,6.12-11.74,9q-3.09,2.17-6.38,4.22l-.82.5-.37.22-.15.08a1.55,1.55,0,0,1-.37.17,3.63,3.63,0,0,1-.46.16,1.73,1.73,0,0,1-.75.09.25.25,0,0,1-.21-.28,1.12,1.12,0,0,1,.18-.45,3.71,3.71,0,0,1,.46-.61l.11-.1.05-.05.5-.72c.82-1.18,1.68-2.36,2.56-3.54s1.79-2.35,2.71-3.51l1.41-1.73,1.39-1.65c.78-.88,1.92-2.05,3-3.13l3.33-3.36c9.08-9.05,18.64-18.46,28.18-28.41q3.76-3.93,7.49-7.94l3.71-4.07,1.84-2.07.91-1.05,1.4-1.63a80.32,80.32,0,0,0,6.35-8.33,13.58,13.58,0,0,0,2.53-7.44,8.24,8.24,0,0,0-.61-3,9.73,9.73,0,0,0-.84-1.59,2,2,0,0,0-.42-.47l-.48-.45-.95-.89-.48-.45c-.05-.08-.23-.13-.37-.19l-.44-.18-1.73-.73-.22-.09-.31,0-.6-.07-1.22-.13L214,335v15.29l52.5,0h0l-.35.41-.86,1-1.73,2L260,357.57C257.56,360.16,255.12,362.74,252.66,365.31Z" transform="translate(-200.88 -226.61)"/></svg>